# xmcd
#
# Track frame offsets: 
#        150
#        16980
#        72910
#        116848
#        161649
#        201308
#        232425
#
# Disc length: 3450 seconds
#
# Revision: 0
# Processed by: cddbd v1.5.2PL0 Copyright (c) Steve Scherf et al.
# Submitted via: ExactAudioCopy v0.95b4
#
DISCID=660d7807
DTITLE=Various Artist - Walter Gibbons Jungle Music [CD1]
DYEAR=2010
DGENRE=Disco
TTITLE0=Arthur Russell - See Through (Walter Gibbons Mix)
TTITLE1=Dinosaur L - Go Bang (Walter Gibbons Unreleased Mix)
TTITLE2=Strafe - Set It Off (Walter Gibbons 12-inch Mix)
TTITLE3=Arts and Craft - I've Been Searching (Walter Gibbons 12-inch Mix
TTITLE3=)
TTITLE4=Luv You Madly Orchestra - Moon Maiden (12-inch Mix)
TTITLE5=Stetsasonic - 4 Ever My Beat (Beat Bongo Mix)
TTITLE6=Harlequin Fours - Set It Off (US 12-inch Version)
EXTD=
EXTT0=
EXTT1=
EXTT2=
EXTT3=
EXTT4=
EXTT5=
EXTT6=
PLAYORDER=
